<svg width="1250" height="1250" viewBox="0 0 1250 1250" fill="none" xmlns="http://www.w3.org/2000/svg">
<path d="M1250 625C1250 970.178 970.178 1250 625 1250C279.822 1250 0 970.178 0 625C0 279.822 279.822 0 625 0C970.178 0 1250 279.822 1250 625Z" fill="black" style="fill:black;fill-opacity:1;"/>
<path d="M944.5 952.5L474 214L471.5 584.5L705 951.5L944.5 952.5Z" fill="#666" style="fill:#666;fill-opacity:1;"/>
<path d="M550 868C550 914.392 512.392 952 466 952C419.608 952 382 914.392 382 868C382 821.608 419.608 784 466 784C512.392 784 550 821.608 550 868Z" fill="#aaa" fill-opacity="0.85098" style="fill:#aaa;fill-opacity:0.85098;"/>
</svg>
