<svg xmlns="http://www.w3.org/2000/svg" viewBox="0 0 430.03 87.74" style="enable-background:new 0 0 430.03 87.74" xml:space="preserve"><path class="st0" d="M38.19 7.79h11.53c9.06 0 11.24 6.53 11.24 11.77 0 2.65-.82 5.59-2.82 7.89 3.53 2.3 5 6.3 5 9.65 0 5.3-1.77 11.89-13.42 11.89H38.19V7.79zm5.94 17.42h5c5.06 0 5.88-3.35 5.88-5.65 0-2.3-.41-5.94-5.3-5.94h-5.59v11.59zm0 17.95h5.59c6.53-.18 7.47-2.77 7.47-6.06 0-3.24-1.41-6.06-8.06-6.06h-5v12.12zM70.21 7.79h9.53c11.65 0 13.48 7.89 13.48 14.07 0 4.65-1.06 10.24-6.71 12.77l7.77 14.36h-6.65l-7.12-13.06h-4.35v13.06h-5.94V7.79zm5.94 22.25h3.59c6.59-.24 7.53-3.59 7.53-8.18 0-4.53-.94-8.24-7.53-8.24h-3.59v16.42zM108.46 35.33 97.52 7.79h6.18l7.77 19.36c1.71-4.41 3.41-8.71 7.77-19.36h6.06l-10.89 27.54v13.65h-5.94V35.33zM137.06 7.79h6.06l11.77 41.2h-6.12l-2.06-7.65h-13.24l-2.06 7.65h-6.12l11.77-41.2zm-2 27.72h10.06c-1.06-3.71-2.24-7.47-5.06-17.36l-5 17.36zM162.25 7.79h5.59l13.77 27.13V7.79h5.88v41.2h-5.47L168.2 21.92v27.07h-5.94V7.79zM209.75 7.79h19.77v5.83h-13.83v14.42h11.42v5.83h-11.42v15.12h-5.94V7.79zM237.17 7.79h5.94v41.2h-5.94V7.79zM251.95 7.79h5.59l13.77 27.13V7.79h5.89v41.2h-5.47L257.9 21.92v27.07h-5.94V7.79zM286.02 7.79h11.71c11.65 0 13.48 9.18 13.48 20.6s-1.82 20.6-13.48 20.6h-11.71V7.79zm5.95 35.43h5.77c6.53-.24 7.53-5.71 7.53-14.83 0-9-1-14.77-7.53-14.77h-5.77v29.6zM319.45 7.79h19.36v5.83H325.4v12.77h11.18v5.83H325.4v10.95h13.83V49h-19.77V7.79zM346.88 7.79h5.88v35.13h13.07v6.06h-18.95V7.79zM372.89 7.79h5.88v35.13h13.06v6.06h-18.95V7.79zM43.26 59.89h2.61l5.07 17.73H48.3l-.89-3.29h-5.7l-.89 3.29h-2.63l5.07-17.73zm-.86 11.93h4.33c-.46-1.6-.96-3.22-2.18-7.47l-2.15 7.47zM54.27 66.27l-.18-2.58h2.2l.18.96c.66-.66 1.62-1.09 2.94-1.09 3.62 0 4.76 1.92 4.76 6.18v7.88H61.8v-7.67c0-2.71-.41-4.03-2.38-4.03-1.57 0-2.76.86-2.76 4.03v7.67h-2.38V66.27zM68.91 61.31c-.81 0-1.44-.66-1.44-1.47 0-.84.63-1.47 1.44-1.47.76 0 1.39.63 1.39 1.47.01.81-.63 1.47-1.39 1.47zm1.17 16.31V63.69h-2.41v13.93h2.41zM74.03 66.25l-.18-2.56h2.25l.13.94c.63-.58 1.62-1.06 2.84-1.06 1.82 0 3.12.71 3.82 1.82.89-1.16 2.13-1.82 3.47-1.82 3.62 0 4.63 1.92 4.63 6.18v7.88h-2.38v-7.67c0-2.71-.3-4.03-2.25-4.03-1.54 0-2.58.81-2.63 3.77v7.93h-2.41V69.5c-.05-2.41-.43-3.57-2.25-3.57-1.57 0-2.66.86-2.66 4.03v7.67h-2.38V66.25zM103.28 75.44c.1 1.29.1 1.95.1 2.18H101l-.03-.58c-.56.35-1.37.71-2.41.71-3.55 0-4.53-2.38-4.53-4.36 0-2.2 1.62-4.53 4.79-4.53.81 0 1.52.18 2.08.41v-.68c0-2.33-1.6-2.66-2.33-2.66-.71 0-1.72.51-2.28 1.49l-1.98-1.37c1.11-1.52 2.58-2.48 4.25-2.48 1.7 0 4.71.73 4.71 5.01v6.86zm-6.86-2.05c0 1.04.48 2 2.15 2 .91 0 1.8-.3 2.33-.96v-2.84c-.51-.2-1.09-.38-2.08-.38-1.46 0-2.4 1.01-2.4 2.18zM105.92 63.69h1.85v-2.74h2.38v2.74h2.68v2.33h-2.68v6.71c0 1.77.1 2.66.73 2.66.35 0 .53-.18.68-.41L113 76.8c-.94.76-1.54.94-2.38.94-2.86 0-2.86-2.38-2.86-5.01v-6.71h-1.85v-2.33zM117.24 61.31c-.81 0-1.44-.66-1.44-1.47 0-.84.63-1.47 1.44-1.47.76 0 1.39.63 1.39 1.47 0 .81-.63 1.47-1.39 1.47zm1.16 16.31V63.69H116v13.93h2.4zM126.41 77.74c-4.96 0-4.99-5.07-4.99-7.09s.03-7.09 4.99-7.09 4.94 5.07 4.94 7.09.02 7.09-4.94 7.09zm0-11.82c-2.68 0-2.61 3.52-2.61 4.74 0 1.22-.08 4.74 2.61 4.74 2.63 0 2.51-3.52 2.51-4.74-.01-1.22.12-4.74-2.51-4.74zM134.33 66.27l-.18-2.58h2.2l.18.96c.66-.66 1.62-1.09 2.94-1.09 3.62 0 4.76 1.92 4.76 6.18v7.88h-2.38v-7.67c0-2.71-.41-4.03-2.38-4.03-1.57 0-2.76.86-2.76 4.03v7.67h-2.38V66.27zM153.81 79.95V56.39h2.2v23.55h-2.2zM165.34 59.89h5.04c5.01 0 5.8 3.95 5.8 8.86s-.79 8.86-5.8 8.86h-5.04V59.89zm2.55 15.24h2.48c2.81-.1 3.24-2.46 3.24-6.38 0-3.88-.43-6.36-3.24-6.36h-2.48v12.74zM181.16 61.31c-.81 0-1.44-.66-1.44-1.47 0-.84.63-1.47 1.44-1.47.76 0 1.39.63 1.39 1.47.01.81-.63 1.47-1.39 1.47zm1.17 16.31V63.69h-2.41v13.93h2.41zM186.26 66.27l-.15-2.58h2.23l.1 1.95c.41-1.32 1.54-2.08 2.76-2.08.96 0 1.8.28 2.51.84l-1.49 1.98c-.25-.28-.81-.46-1.14-.46-1.6 0-2.43.86-2.43 4.03v7.67h-2.38V66.27zM204.64 72.4c0 3.04-1.62 5.34-4.81 5.34-4.03 0-4.99-3.14-4.99-7.09 0-4.08 1.24-7.09 4.99-7.09 3.77 0 4.91 3.06 4.91 6.15v1.16h-7.52c.08 2.63.71 4.51 2.61 4.51 1.82 0 2.43-1.44 2.43-2.99h2.38zm-7.39-3.34h5.17c-.13-1.9-.89-3.14-2.58-3.14-1.71 0-2.47 1.24-2.59 3.14zM216.85 72.4c0 3.47-1.77 5.34-4.41 5.34-3.85 0-5.17-3.47-5.17-7.09 0-3.62 1.32-7.09 5.17-7.09 2.86 0 4.41 2.33 4.41 5.34h-2.33c0-1.92-.68-2.99-2.08-2.99-2.05 0-2.76 1.7-2.76 4.74s.71 4.74 2.76 4.74c1.39 0 2.05-1.19 2.05-2.99h2.36zM218.88 63.69h1.85v-2.74h2.38v2.74h2.68v2.33h-2.68v6.71c0 1.77.1 2.66.73 2.66.35 0 .53-.18.68-.41l1.44 1.82c-.94.76-1.55.94-2.38.94-2.86 0-2.86-2.38-2.86-5.01v-6.71h-1.85v-2.33zM230.2 61.31c-.81 0-1.44-.66-1.44-1.47 0-.84.63-1.47 1.44-1.47.76 0 1.39.63 1.39 1.47 0 .81-.63 1.47-1.39 1.47zm1.16 16.31V63.69h-2.41v13.93h2.41zM239.37 77.74c-4.96 0-4.99-5.07-4.99-7.09s.03-7.09 4.99-7.09 4.94 5.07 4.94 7.09.02 7.09-4.94 7.09zm0-11.82c-2.68 0-2.61 3.52-2.61 4.74 0 1.22-.08 4.74 2.61 4.74 2.63 0 2.51-3.52 2.51-4.74-.01-1.22.12-4.74-2.51-4.74zM247.3 66.27l-.18-2.58h2.2l.18.96c.66-.66 1.62-1.09 2.94-1.09 3.62 0 4.76 1.92 4.76 6.18v7.88h-2.38v-7.67c0-2.71-.4-4.03-2.38-4.03-1.57 0-2.76.86-2.76 4.03v7.67h-2.38V66.27zM266.77 79.95V56.39h2.2v23.55h-2.2zM278.04 59.89h2.56v17.73h-2.56V59.89zM284.4 59.1h2.38v14.28c0 1.57-.03 2 .43 2 .25 0 .46-.23.61-.43l1.37 1.75c-1.01 1.04-2.03 1.04-2.41 1.04-2.38 0-2.38-1.6-2.38-4.36V59.1zM291.21 59.1h2.38v14.28c0 1.57-.03 2 .43 2 .25 0 .46-.23.61-.43L296 76.7c-1.01 1.04-2.03 1.04-2.41 1.04-2.38 0-2.38-1.6-2.38-4.36V59.1zM308.18 75.03l.18 2.58h-2.18l-.18-.96c-.68.66-1.65 1.09-2.94 1.09-3.65 0-4.79-1.92-4.79-6.18v-7.88h2.38v7.67c0 2.71.43 4.03 2.41 4.03 1.57 0 2.74-.86 2.74-4.03v-7.67h2.38v11.35zM313.53 72.96c0 1.37.73 2.43 2.38 2.43 1.67 0 1.9-1.11 1.9-1.65 0-1.16-1.24-1.6-2.51-2-1.8-.56-3.98-1.42-3.98-4.23 0-1.11.86-3.95 4.43-3.95 3.5 0 4.31 2.94 4.31 4.43h-2.38c0-1.34-.71-2.08-1.93-2.08-1.34 0-2.03.71-2.03 1.6 0 1.22 1.29 1.65 2.56 2.05 1.8.56 3.95 1.52 3.95 4.18 0 1.72-1.17 4-4.33 4-4.41 0-4.76-4.1-4.76-4.79h2.39zM322.26 63.69h1.85v-2.74h2.38v2.74h2.68v2.33h-2.68v6.71c0 1.77.1 2.66.73 2.66.35 0 .53-.18.68-.41l1.44 1.82c-.94.76-1.55.94-2.38.94-2.86 0-2.86-2.38-2.86-5.01v-6.71h-1.85v-2.33zM332.55 66.27l-.15-2.58h2.23l.1 1.95c.41-1.32 1.54-2.08 2.76-2.08.96 0 1.8.28 2.51.84l-1.49 1.98c-.25-.28-.81-.46-1.14-.46-1.6 0-2.43.86-2.43 4.03v7.67h-2.38V66.27zM350.88 75.44c.1 1.29.1 1.95.1 2.18h-2.38l-.03-.58c-.56.35-1.37.71-2.41.71-3.55 0-4.53-2.38-4.53-4.36 0-2.2 1.62-4.53 4.79-4.53.81 0 1.52.18 2.08.41v-.68c0-2.33-1.6-2.66-2.33-2.66-.71 0-1.72.51-2.28 1.49l-1.98-1.37c1.11-1.52 2.58-2.48 4.26-2.48 1.7 0 4.71.73 4.71 5.01v6.86zm-6.86-2.05c0 1.04.48 2 2.15 2 .91 0 1.8-.3 2.33-.96v-2.84c-.51-.2-1.09-.38-2.08-.38-1.46 0-2.4 1.01-2.4 2.18zM353.52 63.69h1.85v-2.74h2.38v2.74h2.68v2.33h-2.68v6.71c0 1.77.1 2.66.73 2.66.35 0 .53-.18.68-.41l1.44 1.82c-.94.76-1.55.94-2.38.94-2.86 0-2.86-2.38-2.86-5.01v-6.71h-1.85v-2.33zM364.84 61.31c-.81 0-1.44-.66-1.44-1.47 0-.84.63-1.47 1.44-1.47.76 0 1.39.63 1.39 1.47 0 .81-.63 1.47-1.39 1.47zm1.17 16.31V63.69h-2.41v13.93h2.41zM374.01 77.74c-4.96 0-4.99-5.07-4.99-7.09s.03-7.09 4.99-7.09 4.94 5.07 4.94 7.09.02 7.09-4.94 7.09zm0-11.82c-2.68 0-2.61 3.52-2.61 4.74 0 1.22-.08 4.74 2.61 4.74 2.63 0 2.51-3.52 2.51-4.74 0-1.22.12-4.74-2.51-4.74zM381.94 66.27l-.18-2.58h2.2l.18.96c.66-.66 1.62-1.09 2.94-1.09 3.62 0 4.76 1.92 4.76 6.18v7.88h-2.38v-7.67c0-2.71-.4-4.03-2.38-4.03-1.57 0-2.76.86-2.76 4.03v7.67h-2.38V66.27z"/></svg>