<svg width="4490" height="894" fill="none" xmlns="http://www.w3.org/2000/svg"><g clip-path="url(#a)"><path d="M348.283 369.905c10.476 0 20.681 1.084 30.653 2.842l88.885-153.981c-37.328-13.673-77.459-21.513-119.505-21.513-.49 0-.966.044-1.456.044H172.511V-.357H0v545.981c0 37.324 5.854 73.19 16.83 106.855 20.32 63.289 58.366 118.526 108.138 160.234l88.888-153.989c-25.73-30.569-41.29-69.989-41.29-113.073 0-97.062 78.67-175.746 175.717-175.746Z" fill="#000"/><path d="m564.301 272.694-88.136 152.682c29.578 31.453 47.833 73.683 47.833 120.275 0 97.062-78.67 175.746-175.715 175.746-13.865 0-27.285-1.776-40.223-4.81l-88.162 152.726C259.658 885.107 302.917 894 348.316 894c192.269 0 348.314-155.891 348.314-348.376 0-110.649-51.829-209.101-132.329-272.93Z" fill="#666"/><path d="M3102.64 630.34c6.58 5.49 13.72 8.418 21.4 9.15 7.68.548 12.26.732 13.72.732 13.36 0 29.74-1.838 48.66-8.147v79.139c-22.31 6.222-42.98 9.333-62.01 9.333-51.81 0-115.44-19.535-115.44-110.151V477.012h-52.68v-73.19h52.68v-68.063l83.79-23.968v92.031h89.46v73.19h-89.46v132.836c0 8.232 3.29 15.004 9.88 20.492ZM1200.26 622.109c-8.79 8.596-20.13 12.989-34.22 12.989h-114.15v-89.654h114.15c14.09 0 25.43 4.387 34.22 13.174 8.77 8.779 13.17 19.396 13.17 31.835 0 12.625-4.4 23.055-13.17 31.656ZM1051.89 383.33h102.45c13.9 0 25.43 4.392 34.21 13.357 8.77 8.965 13.17 19.764 13.17 32.205 0 12.624-4.4 23.236-13.17 32.199-8.78 8.969-20.31 13.542-34.21 13.542h-102.45V383.33Zm184.95 121.677c14.82-9.697 26.71-22.69 35.49-38.974 8.78-16.101 13.17-33.666 13.17-52.329 0-31.287-11.7-57.269-35.12-78.13-23.41-20.856-54.52-31.287-93.12-31.287H967.01V714.14h204.89c40.06 0 72.08-10.425 95.68-31.472 23.59-20.856 35.48-47.023 35.48-78.673 0-20.678-5.48-39.889-16.46-57.637-10.97-17.747-27.62-31.653-49.76-41.351Zm328.75 59.099c0 21.591-6.41 39.52-19.03 54.158-12.81 14.64-29.45 21.958-50.13 21.958-17.19 0-31.64-6.038-43.54-18.113-11.89-12.076-17.93-27.812-17.93-47.392V403.822h-84.88v192.484c0 37.146 12.62 66.967 38.05 89.29 25.43 22.506 55.62 33.671 90.74 33.671 34.39 0 63.3-11.165 86.72-33.852v28.725h84.87V403.822h-84.87v160.284Zm148.18 150.034h84.88V403.822h-84.88V714.14Zm43.35-435.651c-14.45 0-26.89 4.757-36.95 14.639-10.06 9.698-15.19 21.59-15.19 35.675 0 14.091 5.13 25.802 15.19 35.5 10.06 9.514 22.5 14.27 36.95 14.27 14.45 0 26.71-4.941 36.77-14.634 10.25-9.334 15.19-21.045 15.19-35.136 0-14.085-4.94-25.977-15.19-35.675-10.06-9.882-22.32-14.639-36.77-14.639Zm103.54 435.651h84.89V304.287h-84.89V714.14Zm345.94-96.971c-16.28 16.647-35.86 24.88-58.54 24.88-23.41 0-42.99-8.233-58.72-24.517-15.92-16.468-23.78-36.045-23.78-58.551 0-22.687 7.86-42.267 23.78-58.914 15.73-16.652 35.31-24.886 58.72-24.886 22.68 0 42.26 8.416 58.54 25.249 16.47 16.653 24.7 36.23 24.7 58.551 0 22.143-8.23 41.533-24.7 58.188Zm18.85-186.996c-23.79-21.23-52.32-31.656-85.44-31.656-42.26 0-78.3 15.372-108.3 46.293-30.18 31.104-45.18 69.163-45.18 114.171 0 43.184 15.18 80.693 45.37 112.344 30.18 31.656 66.22 47.388 108.11 47.388 33.48 0 62.02-10.063 85.44-30.37v25.797h84.88V304.287h-84.88v125.886Zm216.23 95.876c4.75-14.823 13.72-27.264 27.26-37.325 13.35-10.251 29.45-15.373 48.29-15.373 18.67 0 34.76 5.122 47.93 15.373 13.36 10.061 22.32 22.502 26.89 37.325h-150.37Zm176.9-91.304c-29.45-24.152-62.93-36.228-100.8-36.228-43.72 0-81.22 15.372-112.32 46.293-31.65 31.104-47.38 69.163-47.38 114.171 0 43.732 15.36 81.241 46.46 112.713 31.1 31.287 68.79 47.019 113.24 47.019 29.64 0 58.54-7.314 86.72-21.954 27.98-14.639 48.11-34.034 60.18-58.186l-73.72-21.041c-19.03 17.566-43.54 26.35-73.18 26.35-18.65 0-34.94-4.576-48.48-13.905-13.72-9.151-22.87-22.322-27.62-39.524h233.06c2.2-9.698 3.48-19.759 3.48-30.374 0-10.975-1.46-22.323-4.03-34.03-7.86-36.597-26.52-67.151-55.61-91.304Zm920.73 91.304c4.57-14.823 13.72-27.264 27.07-37.325 13.54-10.251 29.64-15.373 48.48-15.373 18.66 0 34.58 5.122 47.93 15.373 13.17 10.061 22.14 22.502 26.9 37.325h-150.38Zm176.72-91.304c-29.27-24.152-62.75-36.228-100.62-36.228-43.72 0-81.23 15.372-112.51 46.293-31.46 31.104-47.38 69.163-47.38 114.171 0 43.732 15.55 81.241 46.47 112.713 31.1 31.287 68.78 47.019 113.42 47.019 29.64 0 58.54-7.314 86.53-21.954 28.17-14.639 48.3-34.034 60.37-58.186l-73.72-21.041c-19.21 17.566-43.54 26.35-73.18 26.35-18.84 0-34.94-4.576-48.66-13.905-13.72-9.151-22.87-22.322-27.44-39.524h232.88c2.38-9.698 3.47-19.759 3.47-30.374 0-10.975-1.27-22.323-4.02-34.03-7.87-36.597-26.34-67.151-55.61-91.304Zm368.26-2.562c-25.43-22.502-55.62-33.666-90.74-33.666-34.4 0-63.12 11.343-86.53 33.85v-28.545h-84.89V714.14h84.89V553.676c0-21.589 6.21-39.524 19.02-54.159 12.62-14.638 29.27-21.958 49.94-21.958 17.2 0 31.65 6.038 43.73 18.116 11.89 12.076 17.74 27.996 17.74 47.391V714.14h84.89V521.472c0-37.141-12.63-66.967-38.05-89.289Zm301.85 184.986c-16.47 16.647-35.86 24.88-58.55 24.88-23.41 0-42.99-8.233-58.9-24.517-15.74-16.468-23.6-36.045-23.6-58.551 0-22.687 7.86-42.267 23.6-58.914 15.91-16.652 35.49-24.886 58.9-24.886 22.69 0 42.08 8.416 58.55 25.249 16.46 16.653 24.51 36.23 24.51 58.551 0 22.143-8.05 41.533-24.51 58.188Zm18.66-312.882v125.886c-23.79-21.23-52.14-31.656-85.44-31.656-42.08 0-78.3 15.372-108.3 46.293-30 31.104-45 69.163-45 114.171 0 43.184 15 80.693 45.37 112.344 30.18 31.656 66.22 47.388 107.93 47.388 33.66 0 62.02-10.063 85.44-30.37v25.797h84.88V304.287h-84.88Zm-1510.5 95.885c-37.84-.009-66.21 15.178-84.88 45.162l.01-41.498-84.87-.023-.08 310.309 84.87.023V558.618c.01-54.141 47.08-81.598 84.93-81.589 8.63.005 17.58.954 26.88 2.392l.03-76.857c-9.31-1.444-18.25-2.388-26.89-2.392Zm512.81 0c-37.85-.009-66.22 15.178-84.89 45.162l.01-41.498-84.86-.023-.09 310.309 84.87.023V558.618c.01-54.141 47.08-81.598 84.93-81.589 8.63.005 17.58.954 26.88 2.392l.03-76.857c-9.31-1.444-18.25-2.388-26.88-2.392Z" fill="#000"/></g><defs><clipPath id="a"><path fill="#fff" d="M0 894h4490V0H0z"/></clipPath></defs></svg>