<svg xmlns="http://www.w3.org/2000/svg" viewBox="0 0 127.49 51.14"><g id="Layer_2" data-name="Layer 2"><g id="Layer_1-2" data-name="Layer 1"><path class="cls-1" d="M60.58,22.91c0-.91,1-1.29,1.78-1.29a2.76,2.76,0,0,1,2.38,1.24l1.93-1.93a5.34,5.34,0,0,0-4.24-1.74c-2.46,0-4.9,1.22-4.9,3.93,0,4.64,6.57,2.66,6.57,5.17,0,1-1.14,1.4-2,1.4a3.63,3.63,0,0,1-2.78-1.38l-2,2A6,6,0,0,0,61.9,32c2.49,0,5.25-1,5.25-3.91C67.15,23.31,60.58,25.09,60.58,22.91Z"/><path class="cls-1" d="M122.3,27.88A4,4,0,0,1,119,29.53a3.15,3.15,0,0,1-3.27-2.89H125V25.8c0-4.24-2.31-6.62-5.71-6.62a6.39,6.39,0,1,0,4.9,10.64Zm-3.4-6.42A2.8,2.8,0,0,1,122,24.35h-6.24A3,3,0,0,1,118.9,21.46Z"/><path class="cls-1" d="M109.18,28.16a3.46,3.46,0,0,1-2.58,1.07A3.52,3.52,0,0,1,103,25.57a3.52,3.52,0,0,1,3.58-3.65A3.46,3.46,0,0,1,109.18,23l2.08-2.08a6.8,6.8,0,0,0-4.65-1.72,6.4,6.4,0,1,0,0,12.78,6.8,6.8,0,0,0,4.65-1.73Z"/><path class="cls-1" d="M76.12,19.18a5.65,5.65,0,0,0-3.58,1.31v-1h-3v18h3V30.7A5.77,5.77,0,0,0,76.12,32a6.22,6.22,0,0,0,6.51-6.39A6.22,6.22,0,0,0,76.12,19.18Zm0,10a3.29,3.29,0,0,1-3.58-3.65c0-2.43,1.34-3.65,3.58-3.65a3.44,3.44,0,0,1,3.47,3.65A3.44,3.44,0,0,1,76.12,29.22Z"/><path class="cls-1" d="M94.69,19.48v1a5.65,5.65,0,0,0-3.58-1.31,6.22,6.22,0,0,0-6.51,6.39A6.22,6.22,0,0,0,91.11,32a5.77,5.77,0,0,0,3.58-1.26v1h3V19.48Zm-3.58,9.74a3.44,3.44,0,0,1-3.47-3.65,3.44,3.44,0,0,1,3.47-3.65c2.23,0,3.58,1.22,3.58,3.65A3.29,3.29,0,0,1,91.11,29.22Z"/><polygon style="fill:#888;" points="0 51.14 0 6.39 6.39 6.39 6.39 44.74 0 51.14"/><polygon style="fill:#444;" points="6.39 0 51.14 0 44.74 6.39 0 6.39 6.39 0"/><polygon style="fill:#222;" points="6.39 44.74 44.74 44.74 44.74 51.14 0 51.14 6.39 44.74"/><polygon style="fill:#666;" points="44.74 51.14 44.74 6.39 51.14 0 51.14 44.74 44.74 51.14"/><path class="cls-1" d="M16.35,32H11.62V19.18H16c4.23,0,7.77,1.75,7.77,6.43,0,4.13-3.47,6.35-7.38,6.35"/><path class="cls-1" d="M32.85,32.24c-4.08,0-7-2.6-7-6.68s3-6.68,7-6.68,7,2.6,7,6.68-3,6.68-7,6.68"/><path class="cls-1" d="M125.06,20.7a1.2,1.2,0,0,1,.1-.48,1.18,1.18,0,0,1,.26-.38,1.25,1.25,0,0,1,.39-.25,1.22,1.22,0,0,1,.94,0,1.24,1.24,0,0,1,.39.25,1.18,1.18,0,0,1,.26.38,1.26,1.26,0,0,1,0,1,1.18,1.18,0,0,1-.26.38,1.24,1.24,0,0,1-.39.25,1.22,1.22,0,0,1-.94,0,1.24,1.24,0,0,1-.39-.25,1.18,1.18,0,0,1-.26-.38A1.2,1.2,0,0,1,125.06,20.7Zm.22,0a1.07,1.07,0,0,0,.08.41,1,1,0,0,0,.21.33,1,1,0,0,0,.32.22,1,1,0,0,0,.39.08,1,1,0,0,0,.39-.08,1,1,0,0,0,.32-.22,1,1,0,0,0,.21-.33,1.11,1.11,0,0,0,0-.82A1,1,0,0,0,127,20a1,1,0,0,0-.32-.22,1,1,0,0,0-.39-.08,1,1,0,0,0-.39.08,1,1,0,0,0-.32.22,1,1,0,0,0-.21.33A1.07,1.07,0,0,0,125.28,20.7Zm.53-.71h.53q.5,0,.5.4a.35.35,0,0,1-.11.28.48.48,0,0,1-.27.11l.41.63h-.23l-.38-.61H126v.61h-.22Zm.22.63h.36l.12,0a.19.19,0,0,0,.08-.07.24.24,0,0,0,0-.13.21.21,0,0,0,0-.12.19.19,0,0,0-.08-.07l-.1,0H126Z"/></g></g></svg>