<svg width="2019" height="329" viewBox="0 0 2019 329" fill="none" xmlns="http://www.w3.org/2000/svg">
<path d="M448.561 250.556C432.676 250.556 419.296 247.466 408.419 241.286C397.621 235.106 389.444 226.502 383.888 215.473C378.333 204.443 375.555 191.654 375.555 177.104V82.7674H422.974V179.686C422.974 188.681 425.165 195.369 429.546 199.75C434.007 204.052 440.345 206.203 448.561 206.203C456.699 206.203 462.959 204.052 467.341 199.75C471.723 195.369 473.914 188.681 473.914 179.686V82.7674H521.567V177.104C521.567 191.575 518.789 204.326 513.234 215.355C507.678 226.385 499.462 235.028 488.585 241.286C477.787 247.466 464.445 250.556 448.561 250.556Z" fill="black" style="fill:black;fill-opacity:1;"/>
<path d="M561.258 247.035V82.7674H608.677L666.189 171.003V82.7674H711.965V247.035H664.546L607.033 157.392V247.035H561.258Z" fill="black" style="fill:black;fill-opacity:1;"/>
<path d="M734.248 247.035L794.108 82.7674H850.447L910.073 247.035H856.551L847.396 217.702H795.517L786.361 247.035H734.248ZM805.611 178.512H837.067L821.573 131.579L805.611 178.512Z" fill="black" style="fill:black;fill-opacity:1;"/>
<path d="M932.396 247.035V82.7674H1000.94C1018.31 82.7674 1032.12 86.2875 1042.37 93.3275C1052.63 100.289 1057.75 110.693 1057.75 124.538C1057.75 129.388 1056.85 133.808 1055.05 137.797C1053.25 141.708 1050.75 145.228 1047.54 148.357C1044.33 151.408 1040.61 154.028 1036.39 156.219C1045.07 159.504 1051.96 164.823 1057.05 172.176C1062.21 179.451 1064.79 187.899 1064.79 197.52C1064.79 207.768 1062.21 216.607 1057.05 224.038C1051.96 231.391 1044.68 237.062 1035.21 241.051C1025.82 245.041 1014.64 247.035 1001.65 247.035H932.396ZM979.815 213.009H995.308C1001.88 213.009 1006.85 211.601 1010.21 208.784C1013.58 205.89 1015.26 201.744 1015.26 196.347C1015.26 191.184 1013.74 187.117 1010.68 184.144C1007.63 181.172 1003.29 179.686 997.655 179.686H979.815V213.009ZM979.815 148.24H994.838C998.438 148.24 1001.49 147.614 1003.99 146.363C1006.58 145.111 1008.53 143.312 1009.86 140.965C1011.27 138.54 1011.97 135.646 1011.97 132.283C1011.97 127.354 1010.45 123.561 1007.4 120.901C1004.35 118.163 999.925 116.794 994.134 116.794H979.815V148.24Z" fill="black" style="fill:black;fill-opacity:1;"/>
<path d="M1095.27 247.035V82.7674H1164.99C1177.82 82.7674 1189.01 84.7621 1198.56 88.7515C1208.18 92.7409 1215.62 98.5685 1220.86 106.234C1226.18 113.822 1228.84 123.052 1228.84 133.925C1228.84 141.904 1227.43 148.905 1224.62 154.928C1221.8 160.951 1218.04 166.036 1213.35 170.182C1208.65 174.327 1203.49 177.574 1197.85 179.92L1238.47 247.035H1182.6L1151.84 190.48H1142.69V247.035H1095.27ZM1142.69 153.168H1160.06C1166.55 153.168 1171.64 151.995 1175.32 149.648C1179.07 147.301 1180.95 143.155 1180.95 137.211C1180.95 131.187 1179.07 127.042 1175.32 124.773C1171.64 122.426 1166.63 121.253 1160.29 121.253H1142.69V153.168Z" fill="black" style="fill:black;fill-opacity:1;"/>
<path d="M1264.79 247.035V82.7674H1312.21V247.035H1264.79Z" fill="black" style="fill:black;fill-opacity:1;"/>
<path d="M1352.93 247.035V82.7674H1412.56C1430.09 82.7674 1445.42 86.2484 1458.57 93.2102C1471.71 100.094 1481.93 109.715 1489.2 122.074C1496.48 134.355 1500.12 148.631 1500.12 164.901C1500.12 177.182 1498.04 188.368 1493.9 198.459C1489.75 208.55 1483.8 217.233 1476.06 224.507C1468.39 231.704 1459.19 237.258 1448.47 241.169C1437.75 245.08 1425.78 247.035 1412.56 247.035H1352.93ZM1400.35 202.918H1411.38C1417.17 202.918 1422.42 202.175 1427.11 200.688C1431.88 199.124 1435.99 196.777 1439.44 193.648C1442.96 190.441 1445.66 186.452 1447.53 181.68C1449.41 176.909 1450.35 171.316 1450.35 164.901C1450.35 156.297 1448.71 149.179 1445.42 143.547C1442.14 137.915 1437.56 133.73 1431.69 130.992C1425.82 128.254 1419.05 126.885 1411.38 126.885H1400.35V202.918Z" fill="black" style="fill:black;fill-opacity:1;"/>
<path d="M1616.1 250.556C1603.58 250.556 1591.72 248.639 1580.54 244.806C1569.35 240.895 1559.41 235.263 1550.72 227.91C1542.12 220.557 1535.31 211.601 1530.3 201.04C1525.37 190.402 1522.9 178.356 1522.9 164.901C1522.9 151.604 1525.29 139.675 1530.06 129.115C1534.84 118.554 1541.45 109.559 1549.9 102.128C1558.35 94.6964 1568.09 89.0253 1579.13 85.1141C1590.16 81.203 1601.94 79.2474 1614.46 79.2474C1618.84 79.2474 1623.45 79.4821 1628.31 79.9514C1633.16 80.4208 1638.2 81.2812 1643.45 82.5328C1648.69 83.7843 1653.97 85.5444 1659.29 87.8128V132.048C1653.19 128.528 1646.81 125.946 1640.16 124.304C1633.51 122.583 1626.19 121.722 1618.21 121.722C1610.86 121.722 1604.28 122.739 1598.49 124.773C1592.7 126.729 1587.81 129.584 1583.82 133.339C1579.91 137.093 1576.9 141.669 1574.78 147.067C1572.75 152.464 1571.73 158.565 1571.73 165.371C1571.73 175.383 1573.88 183.675 1578.19 190.246C1582.57 196.816 1588.36 201.705 1595.56 204.912C1602.76 208.12 1610.62 209.723 1619.15 209.723C1621.66 209.723 1624.28 209.567 1627.02 209.254C1629.75 208.863 1632.45 208.393 1635.11 207.846V185.787H1599.2L1608.59 148.709H1676.19V237.179C1670.87 239.917 1664.73 242.303 1657.77 244.337C1650.8 246.371 1643.68 247.896 1636.4 248.913C1629.13 250.008 1622.36 250.556 1616.1 250.556Z" fill="black" style="fill:black;fill-opacity:1;"/>
<path d="M1714.44 247.035V82.7674H1836.28V123.6H1761.86V144.955H1822.89V182.267H1761.86V205.734H1841.91L1832.52 247.035H1714.44Z" fill="black" style="fill:black;fill-opacity:1;"/>
<path d="M1871.81 247.035V82.7674H1931.44C1948.97 82.7674 1964.3 86.2484 1977.45 93.2102C1990.6 100.094 2000.81 109.715 2008.08 122.074C2015.36 134.355 2019 148.631 2019 164.901C2019 177.182 2016.93 188.368 2012.78 198.459C2008.63 208.55 2002.69 217.233 1994.94 224.507C1987.27 231.704 1978.08 237.258 1967.36 241.169C1956.64 245.08 1944.66 247.035 1931.44 247.035H1871.81ZM1919.23 202.918H1930.27C1936.06 202.918 1941.3 202.175 1945.99 200.688C1950.77 199.124 1954.88 196.777 1958.32 193.648C1961.84 190.441 1964.54 186.452 1966.42 181.68C1968.29 176.909 1969.23 171.316 1969.23 164.901C1969.23 156.297 1967.59 149.179 1964.3 143.547C1961.02 137.915 1956.44 133.73 1950.57 130.992C1944.7 128.254 1937.93 126.885 1930.27 126.885H1919.23V202.918Z" fill="black" style="fill:black;fill-opacity:1;"/>
<path d="M1368.28 329C1364.98 329 1361.71 328.71 1358.48 328.13C1355.28 327.551 1352.39 326.681 1349.82 325.522V311.004C1351.01 311.961 1352.6 312.844 1354.59 313.65C1356.6 314.457 1358.75 315.099 1361.02 315.578C1363.31 316.057 1365.48 316.297 1367.52 316.297C1369.54 316.297 1371.2 316.007 1372.51 315.427C1373.83 314.847 1374.48 314.028 1374.48 312.97C1374.48 311.936 1374.01 311.067 1373.08 310.361C1372.17 309.655 1370.52 308.987 1368.13 308.357L1364.19 307.298C1358.8 305.862 1354.9 303.719 1352.51 300.871C1350.11 298.023 1348.91 294.696 1348.91 290.89C1348.91 288.495 1349.43 286.265 1350.46 284.198C1351.52 282.131 1353.01 280.329 1354.93 278.791C1356.84 277.229 1359.13 276.019 1361.77 275.162C1364.42 274.305 1367.35 273.876 1370.55 273.876C1373.47 273.876 1376.2 274.103 1378.72 274.557C1381.26 275.011 1383.53 275.666 1385.52 276.523V291.117C1384.49 290.335 1383.15 289.604 1381.52 288.924C1379.9 288.218 1378.11 287.651 1376.14 287.222C1374.2 286.794 1372.24 286.58 1370.24 286.58C1368.91 286.58 1367.75 286.744 1366.77 287.071C1365.78 287.374 1365.01 287.802 1364.46 288.357C1363.93 288.886 1363.66 289.504 1363.66 290.209C1363.66 290.839 1363.87 291.381 1364.27 291.835C1364.7 292.263 1365.38 292.667 1366.31 293.045C1367.27 293.423 1368.53 293.839 1370.09 294.293L1373.95 295.427C1379.37 297.015 1383.29 299.069 1385.71 301.589C1388.16 304.11 1389.38 307.324 1389.38 311.23C1389.38 314.734 1388.5 317.822 1386.73 320.493C1384.99 323.165 1382.54 325.257 1379.36 326.769C1376.21 328.256 1372.51 329 1368.28 329Z" fill="#333333" style="fill:#333333;fill:color(display-p3 0.2000 0.2000 0.2000);fill-opacity:1;"/>
<path d="M1450.42 329C1446.29 329 1442.48 328.307 1439 326.921C1435.52 325.509 1432.5 323.556 1429.93 321.06C1427.38 318.565 1425.4 315.641 1423.99 312.289C1422.6 308.937 1421.91 305.307 1421.91 301.4C1421.91 297.468 1422.6 293.826 1423.99 290.474C1425.4 287.122 1427.38 284.198 1429.93 281.703C1432.5 279.207 1435.52 277.266 1439 275.88C1442.48 274.494 1446.29 273.801 1450.42 273.801C1454.56 273.801 1458.35 274.506 1461.81 275.918C1465.29 277.329 1468.3 279.295 1470.85 281.816C1473.42 284.336 1475.41 287.273 1476.82 290.625C1478.23 293.952 1478.94 297.544 1478.94 301.4C1478.94 305.307 1478.23 308.937 1476.82 312.289C1475.41 315.641 1473.42 318.565 1470.85 321.06C1468.3 323.556 1465.29 325.509 1461.81 326.921C1458.35 328.307 1454.56 329 1450.42 329ZM1450.42 314.709C1452.27 314.709 1453.94 314.406 1455.45 313.801C1456.99 313.171 1458.32 312.276 1459.43 311.117C1460.54 309.958 1461.39 308.559 1462 306.92C1462.6 305.282 1462.91 303.442 1462.91 301.4C1462.91 298.678 1462.38 296.321 1461.32 294.33C1460.26 292.339 1458.78 290.802 1456.89 289.718C1455.03 288.634 1452.87 288.092 1450.42 288.092C1448.58 288.092 1446.89 288.407 1445.36 289.037C1443.84 289.642 1442.53 290.524 1441.42 291.684C1440.31 292.843 1439.46 294.242 1438.85 295.88C1438.25 297.519 1437.94 299.359 1437.94 301.4C1437.94 304.123 1438.47 306.479 1439.53 308.47C1440.59 310.462 1442.05 311.999 1443.92 313.083C1445.81 314.167 1447.98 314.709 1450.42 314.709Z" fill="#333333" style="fill:#333333;fill:color(display-p3 0.2000 0.2000 0.2000);fill-opacity:1;"/>
<path d="M1514.7 327.866V274.935H1551.01V288.848H1529.98V296.939H1548.67V310.247H1529.98V327.866H1514.7Z" fill="#333333" style="fill:#333333;fill:color(display-p3 0.2000 0.2000 0.2000);fill-opacity:1;"/>
<path d="M1596.77 327.866V288.848H1581.64L1584.67 274.935H1625.74V288.848H1612.13V327.866H1596.77Z" fill="#333333" style="fill:#333333;fill:color(display-p3 0.2000 0.2000 0.2000);fill-opacity:1;"/>
<path d="M1671.74 327.866L1655.55 274.935H1671.29L1678.85 304.501L1687.25 274.935H1702.3L1710.69 304.501L1718.26 274.935H1733.61L1717.43 327.866H1702.83L1694.51 297.393L1686.19 327.866H1671.74Z" fill="#333333" style="fill:#333333;fill:color(display-p3 0.2000 0.2000 0.2000);fill-opacity:1;"/>
<path d="M1759.26 327.866L1778.55 274.935H1796.7L1815.91 327.866H1798.67L1795.72 318.414H1779L1776.05 327.866H1759.26ZM1782.25 305.786H1792.39L1787.4 290.663L1782.25 305.786Z" fill="#333333" style="fill:#333333;fill:color(display-p3 0.2000 0.2000 0.2000);fill-opacity:1;"/>
<path d="M1849.01 327.866V274.935H1871.48C1875.61 274.935 1879.22 275.578 1882.3 276.863C1885.4 278.149 1887.79 280.026 1889.48 282.497C1891.2 284.941 1892.05 287.916 1892.05 291.419C1892.05 293.99 1891.6 296.246 1890.69 298.187C1889.78 300.128 1888.57 301.766 1887.06 303.102C1885.55 304.438 1883.88 305.484 1882.07 306.24L1895.15 327.866H1877.15L1867.24 309.642H1864.29V327.866H1849.01ZM1864.29 297.62H1869.89C1871.98 297.62 1873.62 297.242 1874.81 296.485C1876.02 295.729 1876.62 294.393 1876.62 292.478C1876.62 290.537 1876.02 289.201 1874.81 288.47C1873.62 287.714 1872.01 287.336 1869.97 287.336H1864.29V297.62Z" fill="#333333" style="fill:#333333;fill:color(display-p3 0.2000 0.2000 0.2000);fill-opacity:1;"/>
<path d="M1929.54 327.866V274.935H1968.8V288.092H1944.82V294.973H1964.49V306.996H1944.82V314.557H1970.62L1967.59 327.866H1929.54Z" fill="#333333" style="fill:#333333;fill:color(display-p3 0.2000 0.2000 0.2000);fill-opacity:1;"/>
<path fill-rule="evenodd" clip-rule="evenodd" d="M72.6019 3.15658e-05L298.326 0C313.716 0 326.193 11.7378 326.193 26.2172V301.497C326.193 315.977 313.716 327.714 298.326 327.714H72.6019L72.6019 3.15658e-05ZM0.390037 66.3263C1.14701 69.0355 2.95273 71.3567 5.40999 72.7794L14.5526 78.1179C16.161 79.0571 17.1503 80.7828 17.1503 82.6492V137.843C17.1503 139.613 18.0407 141.264 19.5179 142.232L33.2719 151.249C35.7292 152.671 37.5349 154.993 38.2918 157.702C39.0488 160.411 38.695 163.286 37.3083 165.695C35.9216 168.104 33.6155 169.848 30.8974 170.546C28.1793 171.243 25.2718 170.835 22.8145 169.413L15.8673 165.383C13.4101 163.96 10.5026 163.553 7.7845 164.25C5.06639 164.947 2.76032 166.692 1.37359 169.101C-0.0131414 171.509 -0.366939 174.385 0.390037 177.094C1.14701 179.803 2.95273 182.124 5.40999 183.547L14.7539 188.897C16.3806 189.828 17.3863 191.561 17.3902 193.439L17.5106 250.523C17.5145 252.393 18.5106 254.119 20.1249 255.053L33.2719 262.665C35.7292 264.088 37.5349 266.409 38.2918 269.118C39.0488 271.827 38.695 274.703 37.3083 277.111C35.9216 279.52 33.6155 281.265 30.8974 281.962C28.1793 282.659 25.2718 282.252 22.8145 280.829L15.8673 276.806C13.4101 275.383 10.5026 274.976 7.7845 275.673C5.06639 276.37 2.76032 278.115 1.37359 280.524C-0.0131414 282.932 -0.366939 285.808 0.390037 288.517C1.14701 291.226 2.95273 293.547 5.40999 294.97L14.9944 300.519C16.6121 301.456 17.6087 303.187 17.6087 305.06V307.311C17.6292 312.635 19.7433 317.743 23.5032 321.551C27.2631 325.36 32.3734 327.57 37.7518 327.715H61.5869V0.000120013L37.7518 0.000264403C32.2606 0.000264403 26.9943 2.15895 23.1114 6.00144C19.2286 9.84392 17.0472 15.0554 17.0472 20.4895L17.0473 22.0002C17.0477 27.6197 20.0374 32.8122 24.8903 35.6219L33.2719 40.4747C35.7292 41.8974 37.5349 44.2187 38.2918 46.9278C39.0488 49.637 38.695 52.5122 37.3083 54.9209C35.9216 57.3295 33.6155 59.0744 30.8974 59.7716C28.1793 60.4687 25.2718 60.0612 22.8145 58.6385L15.8673 54.6157C13.4101 53.193 10.5026 52.7854 7.7845 53.4826C5.06639 54.1798 2.76032 55.9246 1.37359 58.3333C-0.0131414 60.7419 -0.366939 63.6171 0.390037 66.3263ZM132.187 135.661C130.638 133.626 129.872 131.098 130.029 128.542C130.186 125.985 131.257 123.571 133.044 121.743C134.831 119.915 137.215 118.795 139.758 118.589C142.302 118.382 144.834 119.104 146.89 120.62L182.223 156.09C183.224 157.068 184.019 158.238 184.562 159.529C185.105 160.821 185.385 162.209 185.385 163.611C185.385 165.012 185.105 166.4 184.562 167.692C184.019 168.984 183.224 170.153 182.223 171.131L146.89 206.601C145.927 207.616 144.763 208.419 143.473 208.957C142.183 209.495 140.795 209.756 139.398 209.724C138.005 209.731 136.625 209.458 135.339 208.921C134.052 208.385 132.886 207.596 131.907 206.601C129.922 204.605 128.808 201.9 128.808 199.08C128.808 196.26 129.922 193.556 131.907 191.56L157.345 166.172C157.96 165.493 158.3 164.609 158.3 163.692C158.3 162.775 157.96 161.891 157.345 161.212L132.187 135.661ZM202.854 188.436H259.379C262.191 188.436 264.888 189.558 266.876 191.554C268.865 193.55 269.982 196.257 269.982 199.08C269.982 201.903 268.865 204.611 266.876 206.607C264.888 208.603 262.191 209.724 259.379 209.724H202.854C200.042 209.724 197.345 208.603 195.357 206.607C193.368 204.611 192.251 201.903 192.251 199.08C192.251 196.257 193.368 193.55 195.357 191.554C197.345 189.558 200.042 188.436 202.854 188.436Z" fill="black" style="fill:black;fill-opacity:1;"/>
<path d="M0.390037 66.3263C1.14701 69.0355 2.95273 71.3567 5.40999 72.7794L14.5526 78.1179C16.161 79.0571 17.1503 80.7828 17.1503 82.6492V137.843C17.1503 139.613 18.0407 141.264 19.5179 142.232L33.2719 151.249C35.7292 152.671 37.5349 154.993 38.2918 157.702C39.0488 160.411 38.695 163.286 37.3083 165.695C35.9216 168.104 33.6155 169.848 30.8974 170.546C28.1793 171.243 25.2718 170.835 22.8145 169.413L15.8673 165.383C13.4101 163.96 10.5026 163.553 7.7845 164.25C5.06639 164.947 2.76032 166.692 1.37359 169.101C-0.0131414 171.509 -0.366939 174.385 0.390037 177.094C1.14701 179.803 2.95273 182.124 5.40999 183.547L14.7539 188.897C16.3806 189.828 17.3863 191.561 17.3902 193.439L17.5106 250.523C17.5145 252.393 18.5106 254.119 20.1249 255.053L33.2719 262.665C35.7292 264.088 37.5349 266.409 38.2918 269.118C39.0488 271.827 38.695 274.703 37.3083 277.111C35.9216 279.52 33.6155 281.265 30.8974 281.962C28.1793 282.659 25.2718 282.252 22.8145 280.829L15.8673 276.806C13.4101 275.383 10.5026 274.976 7.7845 275.673C5.06639 276.37 2.76032 278.115 1.37359 280.524C-0.0131414 282.932 -0.366939 285.808 0.390037 288.517C1.14701 291.226 2.95273 293.547 5.40999 294.97L14.9944 300.519C16.6121 301.456 17.6087 303.187 17.6087 305.06V307.311C17.6292 312.635 19.7433 317.743 23.5032 321.551C27.2631 325.36 32.3734 327.57 37.7518 327.715H61.5869V0.000120013L37.7518 0.000264403C32.2606 0.000264403 26.9943 2.15895 23.1114 6.00144C19.2286 9.84392 17.0472 15.0554 17.0472 20.4895L17.0473 22.0002C17.0477 27.6197 20.0374 32.8122 24.8903 35.6219L33.2719 40.4747C35.7292 41.8974 37.5349 44.2187 38.2918 46.9278C39.0488 49.637 38.695 52.5122 37.3083 54.9209C35.9216 57.3295 33.6155 59.0744 30.8974 59.7716C28.1793 60.4687 25.2718 60.0612 22.8145 58.6385L15.8673 54.6157C13.4101 53.193 10.5026 52.7854 7.7845 53.4826C5.06639 54.1798 2.76032 55.9246 1.37359 58.3333C-0.0131414 60.7419 -0.366939 63.6171 0.390037 66.3263Z" fill="#333333" style="fill:#333333;fill:color(display-p3 0.2000 0.2000 0.2000);fill-opacity:1;"/>
</svg>
