<svg width="3875" height="3985" viewBox="0 0 3875 3985" fill="none" xmlns="http://www.w3.org/2000/svg">
<path fill-rule="evenodd" clip-rule="evenodd" d="M130.718 1501.38C141.66 1454.74 174.528 1409.24 233.164 1374.62C445.182 1249.43 680.599 1199.2 923.713 1202.12C1164.23 1205 1413.77 1259.87 1658.89 1347L2575.27 1095.54C2700.03 1061.31 2812.97 1118.32 2880.02 1203.87C2947.56 1290.06 2975.8 1413.76 2919.85 1527.92L2728.04 1919.33C3154.86 2220.81 3477.78 2539.05 3569.71 2698.28C3588.6 2730.99 3595.21 2762.7 3581.43 2792.56C3566.88 2824.11 3534.01 2844.79 3497.3 2858.16C3460.52 2871.55 3414.09 2879.93 3361.68 2885.19C3308.86 2890.48 3248.06 2892.78 3181.75 2893.17C3060.09 2893.89 2917.96 2888.19 2769.85 2882.25C2756.61 2881.72 2743.33 2881.18 2730 2880.65C2574.48 2874.46 2413.59 2868.59 2262.21 2869.87L2035.66 3332.16C1993.34 3418.5 1911.01 3471.29 1824.6 3478.33C1739.95 3485.24 1656.78 3448.01 1604.42 3366.54C1537.8 3262.89 1510.25 3176.78 1517.84 3104.95C1521.68 3068.61 1534.56 3035.53 1556.3 3005.91C1578.02 2976.31 1607.55 2951.56 1642.52 2931.03C1711.54 2890.51 1803.55 2865.36 1906.87 2849.66C2004.96 2834.75 2116.21 2827.95 2233.08 2825.87L2666.76 1940.93C2362.39 1728.19 2006.52 1525.17 1643.68 1394.19L436.485 1725.44C308.276 1760.62 201.795 1705.94 154.415 1630.63C130.467 1592.56 120.005 1547.05 130.718 1501.38ZM1574.53 1370.14L433.586 1683.22C333.96 1710.55 243.607 1668.72 201.665 1602.05C180.952 1569.13 173.63 1532.28 181.575 1498.41C189.291 1465.51 211.523 1434.29 253.99 1409.22C451.731 1292.46 674.016 1243.85 909.244 1246.67C1124.86 1249.26 1350.07 1295.07 1574.53 1370.14ZM1725.87 1371.64C2068.64 1501.95 2402.29 1693.03 2690.3 1892.91L2872.63 1520.85C2919.3 1425.62 2897.53 1315.34 2834.53 1234.95C2771.04 1153.93 2672.91 1111.77 2578.17 1137.77L1725.87 1371.64ZM2704.43 1967.49L2284.08 2825.25C2434.51 2824.25 2593.5 2830.07 2746 2836.14C2759.24 2836.67 2772.42 2837.2 2785.55 2837.72C2934.06 2843.68 3074.91 2849.33 3195.21 2848.62C3260.64 2848.23 3319.42 2845.96 3369.61 2840.93C3420.21 2835.85 3460.21 2828.13 3488.88 2817.69C3517.61 2807.23 3529.19 2796.33 3533.68 2786.6C3538.95 2775.17 3539.2 2755.88 3521.89 2725.9C3434.41 2574.39 3122.67 2265.03 2704.43 1967.49ZM2211.17 2870.59C2099.02 2872.84 1993.93 2879.56 1902.11 2893.51C1801.5 2908.8 1720.08 2932.32 1663.18 2965.72C1635.18 2982.16 1613.62 3000.7 1598.25 3021.65C1582.89 3042.57 1572.68 3067.31 1569.55 3096.99C1563.18 3157.22 1586.15 3236.02 1651.52 3337.73C1698.8 3411.3 1770 3439.16 1833.66 3433.97C1895.55 3428.93 1955.43 3392.44 1988.43 3325.1L2211.17 2870.59Z" fill="#B72222" style="fill:#B72222;fill:color(display-p3 0.7176 0.1333 0.1333);fill-opacity:1;"/>
<path fill-rule="evenodd" clip-rule="evenodd" d="M149.734 1459.88C160.676 1413.24 193.543 1367.75 252.18 1333.12C464.197 1207.94 699.615 1157.71 942.729 1160.62C1183.24 1163.5 1432.78 1218.38 1677.91 1305.5L2594.29 1054.05C2719.05 1019.81 2831.99 1076.82 2899.03 1162.38C2966.58 1248.56 2994.81 1372.27 2938.87 1486.42L2747.05 1877.83C3173.87 2179.31 3496.8 2497.56 3588.73 2656.79C3607.61 2689.49 3614.22 2721.2 3600.45 2751.06C3585.9 2782.61 3553.03 2803.29 3516.32 2816.66C3479.54 2830.05 3433.11 2838.43 3380.7 2843.69C3327.88 2848.99 3267.07 2851.28 3200.76 2851.68C3079.1 2852.39 2936.97 2846.69 2788.86 2840.75C2775.63 2840.22 2762.34 2839.69 2749.02 2839.15C2593.5 2832.96 2432.6 2827.09 2281.23 2828.37L2054.67 3290.66C2012.36 3377 1930.02 3429.79 1843.62 3436.83C1758.97 3443.74 1675.8 3406.52 1623.44 3325.05C1556.82 3221.39 1529.26 3135.28 1536.85 3063.45C1540.69 3027.11 1553.58 2994.03 1575.32 2964.41C1597.04 2934.81 1626.57 2910.06 1661.53 2889.54C1730.55 2849.01 1822.56 2823.86 1925.88 2808.16C2023.98 2793.25 2135.22 2786.46 2252.1 2784.37L2685.78 1899.43C2381.41 1686.7 2025.54 1483.68 1662.69 1352.69L455.501 1683.94C327.292 1719.12 220.811 1664.45 173.431 1589.13C149.483 1551.06 139.021 1505.55 149.734 1459.88ZM1593.55 1328.65L452.601 1641.72C352.976 1669.06 262.623 1627.23 220.681 1560.56C199.968 1527.63 192.646 1490.78 200.591 1456.91C208.307 1424.02 230.539 1392.79 273.006 1367.72C470.747 1250.96 693.032 1202.35 928.26 1205.17C1143.88 1207.76 1369.09 1253.58 1593.55 1328.65ZM1744.89 1330.14C2087.65 1460.45 2421.3 1651.54 2709.31 1851.41L2891.64 1479.36C2938.32 1384.12 2916.54 1273.84 2853.55 1193.45C2790.05 1112.43 2691.93 1070.27 2597.19 1096.27L1744.89 1330.14ZM2723.45 1925.99L2303.09 2783.75C2453.52 2782.75 2612.52 2788.57 2765.01 2794.64C2778.25 2795.17 2791.44 2795.7 2804.57 2796.22C2953.07 2802.18 3093.92 2807.83 3214.23 2807.12C3279.66 2806.73 3338.44 2804.46 3388.62 2799.43C3439.22 2794.35 3479.23 2786.64 3507.89 2776.2C3536.63 2765.73 3548.21 2754.83 3552.7 2745.1C3557.97 2733.67 3558.21 2714.38 3540.9 2684.4C3453.43 2532.89 3141.68 2223.53 2723.45 1925.99ZM2230.18 2829.09C2118.03 2831.34 2012.94 2838.06 1921.12 2852.02C1820.51 2867.31 1739.1 2890.82 1682.19 2924.23C1654.19 2940.66 1632.63 2959.2 1617.26 2980.15C1601.91 3001.08 1591.7 3025.81 1588.56 3055.49C1582.2 3115.72 1605.17 3194.53 1670.53 3296.23C1717.81 3369.8 1789.02 3397.66 1852.67 3392.47C1914.56 3387.43 1974.44 3350.94 2007.45 3283.6L2230.18 2829.09Z" fill="#F59F00" style="fill:#F59F00;fill:color(display-p3 0.9608 0.6235 0.0000);fill-opacity:1;"/>
<path fill-rule="evenodd" clip-rule="evenodd" d="M168.75 1418.39C179.691 1371.74 212.559 1326.25 271.196 1291.63C483.213 1166.44 718.631 1116.21 961.745 1119.12C1202.26 1122.01 1451.8 1176.88 1696.92 1264L2613.3 1012.55C2738.06 978.314 2851 1035.32 2918.05 1120.88C2985.59 1207.07 3013.83 1330.77 2957.89 1444.92L2766.07 1836.33C3192.89 2137.81 3515.81 2456.06 3607.75 2615.29C3626.63 2647.99 3633.24 2679.7 3619.47 2709.56C3604.91 2741.11 3572.04 2761.79 3535.33 2775.16C3498.56 2788.56 3452.12 2796.93 3399.71 2802.19C3346.89 2807.49 3286.09 2809.79 3219.78 2810.18C3098.12 2810.9 2955.99 2805.19 2807.88 2799.25C2794.64 2798.72 2781.36 2798.19 2768.03 2797.66C2612.52 2791.46 2451.62 2785.6 2300.24 2786.87L2073.69 3249.17C2031.38 3335.51 1949.04 3388.29 1862.63 3395.34C1777.98 3402.24 1694.81 3365.02 1642.45 3283.55C1575.83 3179.89 1548.28 3093.78 1555.87 3021.96C1559.71 2985.61 1572.6 2952.53 1594.33 2922.91C1616.05 2893.31 1645.58 2868.56 1680.55 2848.04C1749.57 2807.51 1841.58 2782.36 1944.9 2766.66C2042.99 2751.76 2154.24 2744.96 2271.12 2742.87L2704.8 1857.93C2400.42 1645.2 2044.55 1442.18 1681.71 1311.2L474.516 1642.45C346.307 1677.63 239.827 1622.95 192.446 1547.63C168.498 1509.57 158.037 1464.06 168.75 1418.39ZM1612.56 1287.15L471.617 1600.22C371.991 1627.56 281.638 1585.73 239.697 1519.06C218.983 1486.13 211.661 1449.28 219.606 1415.41C227.323 1382.52 249.554 1351.3 292.022 1326.22C489.762 1209.46 712.048 1160.85 947.276 1163.67C1162.89 1166.26 1388.1 1212.08 1612.56 1287.15ZM1763.9 1288.64C2106.67 1418.96 2440.32 1610.04 2728.33 1809.91L2910.66 1437.86C2957.33 1342.62 2935.56 1232.35 2872.56 1151.96C2809.07 1070.94 2710.94 1028.78 2616.2 1054.77L1763.9 1288.64ZM2742.47 1884.5L2322.11 2742.26C2472.54 2741.25 2631.53 2747.07 2784.03 2753.14C2797.27 2753.67 2810.45 2754.2 2823.58 2754.73C2972.09 2760.68 3112.94 2766.33 3233.25 2765.62C3298.67 2765.24 3357.45 2762.97 3407.64 2757.93C3458.24 2752.86 3498.24 2745.14 3526.91 2734.7C3555.64 2724.23 3567.22 2713.34 3571.71 2703.6C3576.98 2692.18 3577.23 2672.89 3559.92 2642.9C3472.44 2491.39 3160.7 2182.03 2742.47 1884.5ZM2249.2 2787.59C2137.05 2789.84 2031.96 2796.57 1940.14 2810.52C1839.53 2825.81 1758.11 2849.32 1701.21 2882.73C1673.21 2899.17 1651.65 2917.7 1636.28 2938.65C1620.92 2959.58 1610.71 2984.31 1607.58 3013.99C1601.21 3074.22 1624.18 3153.03 1689.55 3254.73C1736.83 3328.3 1808.04 3356.17 1871.69 3350.98C1933.58 3345.93 1993.46 3309.44 2026.46 3242.1L2249.2 2787.59Z" fill="#208733" style="fill:#208733;fill:color(display-p3 0.1255 0.5294 0.2000);fill-opacity:1;"/>
<path fill-rule="evenodd" clip-rule="evenodd" d="M187.765 1376.89C198.707 1330.24 231.575 1284.75 290.212 1250.13C502.229 1124.94 737.647 1074.71 980.761 1077.62C1221.27 1080.51 1470.81 1135.38 1715.94 1222.5L2632.32 971.05C2757.08 936.816 2870.02 993.826 2937.07 1079.38C3004.61 1165.57 3032.84 1289.27 2976.9 1403.42L2785.08 1794.84C3211.9 2096.31 3534.83 2414.56 3626.76 2573.79C3645.64 2606.49 3652.25 2638.2 3638.48 2668.06C3623.93 2699.62 3591.06 2720.29 3554.35 2733.66C3517.57 2747.06 3471.14 2755.43 3418.73 2760.69C3365.91 2765.99 3305.11 2768.29 3238.8 2768.68C3117.13 2769.4 2975 2763.7 2826.89 2757.75C2813.66 2757.22 2800.37 2756.69 2787.05 2756.16C2631.53 2749.97 2470.64 2744.1 2319.26 2745.38L2092.7 3207.67C2050.39 3294.01 1968.05 3346.79 1881.65 3353.84C1797 3360.74 1713.83 3323.52 1661.47 3242.05C1594.85 3138.39 1567.3 3052.29 1574.89 2980.46C1578.73 2944.11 1591.61 2911.03 1613.35 2881.41C1635.07 2851.81 1664.6 2827.07 1699.56 2806.54C1768.58 2766.02 1860.59 2740.86 1963.91 2725.16C2062.01 2710.26 2173.25 2703.46 2290.13 2701.38L2723.81 1816.43C2419.44 1603.7 2063.57 1400.68 1700.72 1269.7L493.532 1600.95C365.323 1636.13 258.843 1581.45 211.462 1506.13C187.514 1468.07 177.052 1422.56 187.765 1376.89ZM1631.58 1245.65L490.633 1558.72C391.007 1586.06 300.654 1544.23 258.712 1477.56C237.999 1444.64 230.677 1407.78 238.622 1373.91C246.338 1341.02 268.57 1309.8 311.038 1284.72C508.778 1167.96 731.063 1119.36 966.292 1122.18C1181.91 1124.76 1407.12 1170.58 1631.58 1245.65ZM1782.92 1247.14C2125.68 1377.46 2459.33 1568.54 2747.34 1768.41L2929.68 1396.36C2976.35 1301.12 2954.58 1190.85 2891.58 1110.46C2828.09 1029.44 2729.96 987.278 2635.22 1013.28L1782.92 1247.14ZM2761.48 1843L2341.12 2700.76C2491.56 2699.75 2650.55 2705.57 2803.04 2711.65C2816.28 2712.17 2829.47 2712.7 2842.6 2713.23C2991.11 2719.19 3131.96 2724.84 3252.26 2724.12C3317.69 2723.74 3376.47 2721.47 3426.66 2716.43C3477.25 2711.36 3517.26 2703.64 3545.92 2693.2C3574.66 2682.74 3586.24 2671.84 3590.73 2662.11C3596 2650.68 3596.24 2631.39 3578.93 2601.4C3491.46 2449.89 3179.72 2140.53 2761.48 1843ZM2268.22 2746.1C2156.06 2748.34 2050.97 2755.07 1959.16 2769.02C1858.54 2784.31 1777.13 2807.82 1720.23 2841.23C1692.23 2857.67 1670.67 2876.21 1655.3 2897.15C1639.94 2918.08 1629.73 2942.81 1626.59 2972.5C1620.23 3032.73 1643.2 3111.53 1708.56 3213.24C1755.84 3286.8 1827.05 3314.67 1890.7 3309.48C1952.59 3304.43 2012.47 3267.95 2045.48 3200.6L2268.22 2746.1Z" fill="#2541B3" style="fill:#2541B3;fill:color(display-p3 0.1451 0.2549 0.7020);fill-opacity:1;"/>
<path fill-rule="evenodd" clip-rule="evenodd" d="M206.781 1335.39C217.723 1288.75 250.591 1243.25 309.227 1208.63C521.245 1083.44 756.662 1033.21 999.776 1036.13C1240.29 1039.01 1489.83 1093.88 1734.95 1181.01L2651.33 929.553C2776.09 895.319 2889.04 952.329 2956.08 1037.88C3023.62 1124.07 3051.86 1247.77 2995.92 1361.93L2804.1 1753.34C3230.92 2054.82 3553.85 2373.06 3645.78 2532.29C3664.66 2565 3671.27 2596.71 3657.5 2626.56C3642.94 2658.12 3610.07 2678.8 3573.36 2692.16C3536.59 2705.56 3490.16 2713.94 3437.75 2719.19C3384.93 2724.49 3324.12 2726.79 3257.81 2727.18C3136.15 2727.9 2994.02 2722.2 2845.91 2716.26C2832.67 2715.72 2819.39 2715.19 2806.07 2714.66C2650.55 2708.47 2489.65 2702.6 2338.27 2703.88L2111.72 3166.17C2069.41 3252.51 1987.07 3305.3 1900.66 3312.34C1816.01 3319.24 1732.84 3282.02 1680.48 3200.55C1613.86 3096.9 1586.31 3010.79 1593.9 2938.96C1597.74 2902.62 1610.63 2869.54 1632.36 2839.92C1654.09 2810.31 1683.62 2785.57 1718.58 2765.04C1787.6 2724.52 1879.61 2699.37 1982.93 2683.67C2081.02 2668.76 2192.27 2661.96 2309.15 2659.88L2742.83 1774.94C2438.46 1562.2 2082.58 1359.18 1719.74 1228.2L512.548 1559.45C384.339 1594.63 277.858 1539.95 230.478 1464.64C206.53 1426.57 196.068 1381.06 206.781 1335.39ZM1650.6 1204.15L509.649 1517.23C410.023 1544.56 319.67 1502.73 277.728 1436.06C257.015 1403.14 249.693 1366.29 257.638 1332.42C265.354 1299.52 287.586 1268.3 330.054 1243.22C527.794 1126.47 750.079 1077.86 985.307 1080.68C1200.93 1083.26 1426.14 1129.08 1650.6 1204.15ZM1801.94 1205.65C2144.7 1335.96 2478.35 1527.04 2766.36 1726.92L2948.69 1354.86C2995.36 1259.63 2973.59 1149.35 2910.59 1068.96C2847.1 987.942 2748.98 945.781 2654.23 971.778L1801.94 1205.65ZM2780.5 1801.5L2360.14 2659.26C2510.57 2658.25 2669.57 2664.08 2822.06 2670.15C2835.3 2670.68 2848.49 2671.21 2861.61 2671.73C3010.12 2677.69 3150.97 2683.34 3271.28 2682.63C3336.7 2682.24 3395.48 2679.97 3445.67 2674.94C3496.27 2669.86 3536.27 2662.14 3564.94 2651.7C3593.67 2641.24 3605.26 2630.34 3609.74 2620.61C3615.01 2609.18 3615.26 2589.89 3597.95 2559.91C3510.47 2408.4 3198.73 2099.04 2780.5 1801.5ZM2287.23 2704.6C2175.08 2706.85 2069.99 2713.57 1978.17 2727.52C1877.56 2742.81 1796.15 2766.32 1739.24 2799.73C1711.24 2816.17 1689.68 2834.71 1674.31 2855.66C1658.95 2876.58 1648.75 2901.32 1645.61 2931C1639.25 2991.23 1662.22 3070.03 1727.58 3171.74C1774.86 3245.31 1846.07 3273.17 1909.72 3267.98C1971.61 3262.93 2031.49 3226.45 2064.49 3159.11L2287.23 2704.6Z" fill="#D6336C" style="fill:#D6336C;fill:color(display-p3 0.8392 0.2000 0.4235);fill-opacity:1;"/>
</svg>
